<svg width="48" height="48" viewBox="0 0 48 48" fill="none" xmlns="http://www.w3.org/2000/svg">
<g clip-path="url(#clip0_277_5384)">
<path d="M16.4858 14.6798L3.72578 16.5298L3.49978 16.5758C3.15765 16.6667 2.84577 16.8467 2.59596 17.0974C2.34616 17.3482 2.16738 17.6608 2.0779 18.0033C1.98842 18.3458 1.99143 18.7059 2.08663 19.0468C2.18183 19.3877 2.36581 19.6973 2.61978 19.9438L11.8638 28.9418L9.68378 41.6518L9.65778 41.8718C9.63683 42.2257 9.71031 42.5787 9.87068 42.8949C10.031 43.211 10.2725 43.4788 10.5704 43.6709C10.8683 43.863 11.212 43.9724 11.5661 43.9881C11.9202 44.0037 12.2721 43.9249 12.5858 43.7598L23.9978 37.7598L35.3838 43.7598L35.5838 43.8518C35.9139 43.9819 36.2727 44.0217 36.6233 43.9674C36.9739 43.913 37.3037 43.7663 37.579 43.5424C37.8542 43.3185 38.0649 43.0253 38.1894 42.6931C38.314 42.3609 38.3479 42.0015 38.2878 41.6518L36.1058 28.9418L45.3538 19.9418L45.5098 19.7718C45.7326 19.4974 45.8787 19.1688 45.9332 18.8194C45.9877 18.4701 45.9486 18.1126 45.82 17.7833C45.6913 17.454 45.4776 17.1647 45.2007 16.9449C44.9239 16.725 44.5937 16.5825 44.2438 16.5318L31.4838 14.6798L25.7798 3.11985C25.6147 2.78491 25.3592 2.50288 25.0422 2.30565C24.7251 2.10843 24.3592 2.00391 23.9858 2.00391C23.6124 2.00391 23.2465 2.10843 22.9294 2.30565C22.6123 2.50288 22.3568 2.78491 22.1918 3.11985L16.4858 14.6798Z" fill="url(#paint0_linear_277_5384)"/>
</g>
<defs>
<linearGradient id="paint0_linear_277_5384" x1="23.985" y1="2.00391" x2="23.985" y2="43.991" gradientUnits="userSpaceOnUse">
<stop stop-color="#FFE641"/>
<stop offset="1" stop-color="#FBC401"/>
</linearGradient>
<clipPath id="clip0_277_5384">
<rect width="48" height="48" fill="white"/>
</clipPath>
</defs>
</svg>