<svg width="32" height="32" viewBox="0 0 32 32" fill="none" xmlns="http://www.w3.org/2000/svg">
<g clip-path="url(#clip0_524_1191)">
<path d="M22.6667 4.45303C24.6778 5.61417 26.3507 7.2804 27.5198 9.28676C28.689 11.2931 29.3139 13.5701 29.3327 15.8921C29.3514 18.2142 28.7634 20.501 27.6268 22.526C26.4902 24.5509 24.8444 26.244 22.8524 27.4375C20.8604 28.6309 18.5912 29.2835 16.2695 29.3304C13.9479 29.3774 11.6541 28.8173 9.61549 27.7054C7.57683 26.5935 5.86391 24.9684 4.6463 22.9911C3.4287 21.0137 2.74863 18.7526 2.67341 16.4317L2.66675 15.9997L2.67341 15.5677C2.74809 13.265 3.41815 11.021 4.61827 9.05435C5.81839 7.08773 7.50762 5.46563 9.52127 4.3462C11.5349 3.22678 13.8043 2.64822 16.1081 2.66694C18.4119 2.68567 20.6716 3.30102 22.6667 4.45303ZM20.9427 12.3904C20.7132 12.1608 20.4077 12.0229 20.0837 12.0025C19.7596 11.9821 19.4393 12.0807 19.1827 12.2797L19.0574 12.3904L14.6667 16.7797L12.9427 15.057L12.8174 14.9464C12.5609 14.7475 12.2406 14.6491 11.9166 14.6695C11.5927 14.6899 11.2873 14.8279 11.0578 15.0574C10.8282 15.2869 10.6903 15.5923 10.6699 15.9162C10.6494 16.2402 10.7479 16.5605 10.9467 16.817L11.0574 16.9424L13.7241 19.609L13.8494 19.7197C14.0832 19.9011 14.3708 19.9996 14.6667 19.9996C14.9627 19.9996 15.2502 19.9011 15.4841 19.7197L15.6094 19.609L20.9427 14.2757L21.0534 14.1504C21.2524 13.8938 21.351 13.5735 21.3306 13.2495C21.3102 12.9254 21.1723 12.62 20.9427 12.3904Z" fill="url(#paint0_linear_524_1191)"/>
</g>
<defs>
<linearGradient id="paint0_linear_524_1191" x1="15.9999" y1="2.6665" x2="15.9999" y2="29.3332" gradientUnits="userSpaceOnUse">
<stop stop-color="#9DC8DA"/>
<stop offset="0.0001" stop-color="#A8D3E5"/>
<stop offset="1" stop-color="#72A8C0"/>
<stop offset="1" stop-color="#72A8C0"/>
</linearGradient>
<clipPath id="clip0_524_1191">
<rect width="32" height="32" fill="white"/>
</clipPath>
</defs>
</svg>