<svg width="1440" height="234" viewBox="0 0 1440 234" fill="none" xmlns="http://www.w3.org/2000/svg">
<mask id="mask0_0_1" style="mask-type:alpha" maskUnits="userSpaceOnUse" x="1310" y="0" width="130" height="190">
<rect width="130" height="190" transform="matrix(-1 0 0 1 1440 0)" fill="white"/>
</mask>
<g mask="url(#mask0_0_1)">
<circle cx="84" cy="84" r="82.8085" transform="matrix(-1 0 0 1 1520 12)" stroke="#1B2366" stroke-width="2.38298"/>
<circle cx="67.9149" cy="67.9149" r="66.7234" transform="matrix(-1 0 0 1 1503.32 27.4893)" stroke="#1B2366" stroke-width="2.38298"/>
<circle cx="52.4255" cy="52.4255" r="51.234" transform="matrix(-1 0 0 1 1487.83 42.9785)" stroke="#1B2366" stroke-width="2.38298"/>
<circle cx="36.3404" cy="36.3404" r="35.1489" transform="matrix(-1 0 0 1 1472.34 59.6597)" stroke="#1B2366" stroke-width="2.38298"/>
</g>
<circle cx="118" cy="230" r="4" transform="rotate(-90 118 230)" fill="#1B2366"/>
<circle cx="118" cy="209" r="4" transform="rotate(-90 118 209)" fill="#1B2366"/>
<circle cx="118" cy="188" r="4" transform="rotate(-90 118 188)" fill="#1B2366"/>
<circle cx="118" cy="167" r="4" transform="rotate(-90 118 167)" fill="#1B2366"/>
<circle cx="137" cy="230" r="4" transform="rotate(-90 137 230)" fill="#1B2366"/>
<circle cx="137" cy="209" r="4" transform="rotate(-90 137 209)" fill="#1B2366"/>
<circle cx="137" cy="188" r="4" transform="rotate(-90 137 188)" fill="#1B2366"/>
<circle cx="137" cy="167" r="4" transform="rotate(-90 137 167)" fill="#1B2366"/>
<circle cx="156" cy="230" r="4" transform="rotate(-90 156 230)" fill="#1B2366"/>
<circle cx="156" cy="209" r="4" transform="rotate(-90 156 209)" fill="#1B2366"/>
<circle cx="156" cy="188" r="4" transform="rotate(-90 156 188)" fill="#1B2366"/>
<circle cx="156" cy="167" r="4" transform="rotate(-90 156 167)" fill="#1B2366"/>
<circle cx="175" cy="230" r="4" transform="rotate(-90 175 230)" fill="#1B2366"/>
<circle cx="175" cy="209" r="4" transform="rotate(-90 175 209)" fill="#1B2366"/>
<circle cx="175" cy="188" r="4" transform="rotate(-90 175 188)" fill="#1B2366"/>
<circle cx="175" cy="167" r="4" transform="rotate(-90 175 167)" fill="#1B2366"/>
<circle cx="194" cy="230" r="4" transform="rotate(-90 194 230)" fill="#1B2366"/>
<circle cx="194" cy="209" r="4" transform="rotate(-90 194 209)" fill="#1B2366"/>
<circle cx="194" cy="188" r="4" transform="rotate(-90 194 188)" fill="#1B2366"/>
<circle cx="194" cy="167" r="4" transform="rotate(-90 194 167)" fill="#1B2366"/>
<circle cx="213" cy="230" r="4" transform="rotate(-90 213 230)" fill="#1B2366"/>
<circle cx="213" cy="209" r="4" transform="rotate(-90 213 209)" fill="#1B2366"/>
<circle cx="213" cy="188" r="4" transform="rotate(-90 213 188)" fill="#1B2366"/>
<circle cx="4" cy="230" r="4" transform="rotate(-90 4 230)" fill="#1B2366"/>
<circle cx="4" cy="209" r="4" transform="rotate(-90 4 209)" fill="#1B2366"/>
<circle cx="4" cy="188" r="4" transform="rotate(-90 4 188)" fill="#1B2366"/>
<circle cx="4" cy="167" r="4" transform="rotate(-90 4 167)" fill="#1B2366"/>
<circle cx="23" cy="230" r="4" transform="rotate(-90 23 230)" fill="#1B2366"/>
<circle cx="23" cy="209" r="4" transform="rotate(-90 23 209)" fill="#1B2366"/>
<circle cx="23" cy="188" r="4" transform="rotate(-90 23 188)" fill="#1B2366"/>
<circle cx="23" cy="167" r="4" transform="rotate(-90 23 167)" fill="#1B2366"/>
<circle cx="42" cy="230" r="4" transform="rotate(-90 42 230)" fill="#1B2366"/>
<circle cx="42" cy="209" r="4" transform="rotate(-90 42 209)" fill="#1B2366"/>
<circle cx="42" cy="188" r="4" transform="rotate(-90 42 188)" fill="#1B2366"/>
<circle cx="42" cy="167" r="4" transform="rotate(-90 42 167)" fill="#1B2366"/>
<circle cx="61" cy="230" r="4" transform="rotate(-90 61 230)" fill="#1B2366"/>
<circle cx="61" cy="209" r="4" transform="rotate(-90 61 209)" fill="#1B2366"/>
<circle cx="61" cy="188" r="4" transform="rotate(-90 61 188)" fill="#1B2366"/>
<circle cx="61" cy="167" r="4" transform="rotate(-90 61 167)" fill="#1B2366"/>
<circle cx="80" cy="230" r="4" transform="rotate(-90 80 230)" fill="#1B2366"/>
<circle cx="80" cy="209" r="4" transform="rotate(-90 80 209)" fill="#1B2366"/>
<circle cx="80" cy="188" r="4" transform="rotate(-90 80 188)" fill="#1B2366"/>
<circle cx="80" cy="167" r="4" transform="rotate(-90 80 167)" fill="#1B2366"/>
<circle cx="99" cy="230" r="4" transform="rotate(-90 99 230)" fill="#1B2366"/>
<circle cx="99" cy="209" r="4" transform="rotate(-90 99 209)" fill="#1B2366"/>
<circle cx="99" cy="188" r="4" transform="rotate(-90 99 188)" fill="#1B2366"/>
<circle cx="99" cy="167" r="4" transform="rotate(-90 99 167)" fill="#1B2366"/>
</svg>