<svg width="765" height="218" viewBox="0 0 765 218" fill="none" xmlns="http://www.w3.org/2000/svg">
<path d="M3 101H159" stroke="#FBD15B" stroke-width="6" stroke-linecap="round"/>
<path d="M499.322 150C462.141 150 432 180.141 432 217.322H499.322V150Z" fill="#DC5354"/>
<path d="M499.322 150V217.322H566.644C566.644 180.141 536.503 150 499.322 150Z" fill="#FBD15B"/>
<path d="M499.322 178.419C477.836 178.419 460.419 195.836 460.419 217.322H499.322V178.419Z" fill="#E9E5D9"/>
<path d="M499.322 178.419V217.322H538.225C538.225 195.836 520.808 178.419 499.322 178.419Z" fill="#F9FBFC"/>
<path d="M566.644 150C566.644 187.181 596.785 217.322 633.966 217.322C633.966 180.141 603.825 150 566.644 150Z" fill="#0A335B"/>
<path d="M701.287 150C664.106 150 633.965 180.141 633.965 217.322H701.287V150Z" fill="#DC5354"/>
<path d="M249.036 24.6511C250.099 24.6511 251.138 24.2201 251.89 23.4691C252.642 22.7171 253.072 21.6781 253.072 20.6151C253.072 19.5521 252.641 18.5131 251.89 17.7611C251.138 17.0101 250.099 16.5791 249.036 16.5791C247.973 16.5791 246.933 17.0101 246.182 17.7611C245.431 18.5131 245 19.5521 245 20.6151C245 21.6781 245.431 22.7171 246.182 23.4691C246.934 24.2211 247.973 24.6511 249.036 24.6511Z" fill="#FBD15B" fill-opacity="0.78"/>
<path d="M290.649 24.6511H290.669C292.898 24.6511 294.705 22.8441 294.705 20.6151C294.705 18.3861 292.898 16.5791 290.669 16.5791H290.649C288.42 16.5791 286.613 18.3861 286.613 20.6151C286.613 22.8441 288.42 24.6511 290.649 24.6511Z" fill="#FBD15B" fill-opacity="0.78"/>
<path d="M269.838 24.6511H269.858C272.087 24.6511 273.894 22.8441 273.894 20.6151C273.894 18.3861 272.087 16.5791 269.858 16.5791H269.838C267.609 16.5791 265.802 18.3861 265.802 20.6151C265.801 22.8441 267.608 24.6511 269.838 24.6511Z" fill="#FBD15B" fill-opacity="0.78"/>
<path d="M311.47 24.6511C312.533 24.6511 313.572 24.2201 314.324 23.4691C315.075 22.7171 315.506 21.6781 315.506 20.6151C315.506 19.5521 315.075 18.5131 314.324 17.7611C313.572 17.0101 312.533 16.5791 311.47 16.5791C310.407 16.5791 309.367 17.0101 308.616 17.7611C307.864 18.5131 307.434 19.5521 307.434 20.6151C307.434 21.6781 307.864 22.7171 308.616 23.4691C309.368 24.2211 310.407 24.6511 311.47 24.6511Z" fill="#FBD15B" fill-opacity="0.78"/>
<path d="M249.036 8.07202C250.099 8.07202 251.138 7.64101 251.89 6.89001C252.642 6.13901 253.072 5.09901 253.072 4.03601C253.072 2.97301 252.641 1.93301 251.89 1.18201C251.138 0.430007 250.099 0 249.036 0C247.973 0 246.933 0.430007 246.182 1.18201C245.431 1.93401 245 2.97301 245 4.03601C245 5.09801 245.431 6.13801 246.182 6.89001C246.934 7.64201 247.973 8.07202 249.036 8.07202Z" fill="#FBD15B" fill-opacity="0.78"/>
<path d="M290.649 8.07202H290.669C292.898 8.07202 294.705 6.26501 294.705 4.03601C294.705 1.80701 292.898 0 290.669 0H290.649C288.42 0 286.613 1.80701 286.613 4.03601C286.613 6.26501 288.42 8.07202 290.649 8.07202Z" fill="#FBD15B" fill-opacity="0.78"/>
<path d="M269.838 8.07202H269.858C272.087 8.07202 273.894 6.26501 273.894 4.03601C273.894 1.80701 272.087 0 269.858 0H269.838C267.609 0 265.802 1.80701 265.802 4.03601C265.801 6.26501 267.608 8.07202 269.838 8.07202Z" fill="#FBD15B" fill-opacity="0.78"/>
<path d="M311.47 8.07202C312.533 8.07202 313.572 7.64101 314.324 6.89001C315.075 6.13901 315.506 5.09901 315.506 4.03601C315.506 2.97301 315.075 1.93301 314.324 1.18201C313.572 0.430007 312.533 0 311.47 0C310.407 0 309.367 0.430007 308.616 1.18201C307.864 1.93401 307.434 2.97301 307.434 4.03601C307.434 5.09801 307.864 6.13801 308.616 6.89001C309.368 7.64201 310.407 8.07202 311.47 8.07202Z" fill="#FBD15B" fill-opacity="0.78"/>
<path d="M249.036 41.2302C250.099 41.2302 251.138 40.7992 251.89 40.0482C252.642 39.2962 253.072 38.2572 253.072 37.1942C253.072 36.1312 252.641 35.0912 251.89 34.3402C251.138 33.5882 250.099 33.1582 249.036 33.1582C247.973 33.1582 246.933 33.5882 246.182 34.3402C245.431 35.0922 245 36.1312 245 37.1942C245 38.2572 245.431 39.2962 246.182 40.0482C246.934 40.7992 247.973 41.2302 249.036 41.2302Z" fill="#FBD15B" fill-opacity="0.78"/>
<path d="M290.649 41.2302H290.669C292.898 41.2302 294.705 39.4232 294.705 37.1942C294.705 34.9652 292.898 33.1582 290.669 33.1582H290.649C288.42 33.1582 286.613 34.9652 286.613 37.1942C286.613 39.4232 288.42 41.2302 290.649 41.2302Z" fill="#FBD15B" fill-opacity="0.78"/>
<path d="M269.838 41.2302H269.858C272.087 41.2302 273.894 39.4232 273.894 37.1942C273.894 34.9652 272.087 33.1582 269.858 33.1582H269.838C267.609 33.1582 265.802 34.9652 265.802 37.1942C265.801 39.4232 267.608 41.2302 269.838 41.2302Z" fill="#FBD15B" fill-opacity="0.78"/>
<path d="M311.47 41.2302C312.533 41.2302 313.572 40.7992 314.324 40.0482C315.075 39.2962 315.506 38.2572 315.506 37.1942C315.506 36.1312 315.075 35.0912 314.324 34.3402C313.572 33.5882 312.533 33.1582 311.47 33.1582C310.407 33.1582 309.367 33.5882 308.616 34.3402C307.864 35.0922 307.434 36.1312 307.434 37.1942C307.434 38.2572 307.864 39.2962 308.616 40.0482C309.368 40.7992 310.407 41.2302 311.47 41.2302Z" fill="#FBD15B" fill-opacity="0.78"/>
<path d="M249.036 57.8088C250.099 57.8088 251.138 57.3778 251.89 56.6268C252.642 55.8748 253.072 54.8358 253.072 53.7728C253.072 52.7098 252.641 51.6698 251.89 50.9188C251.138 50.1678 250.099 49.7368 249.036 49.7368C247.973 49.7368 246.933 50.1668 246.182 50.9188C245.431 51.6708 245 52.7098 245 53.7728C245 54.8358 245.431 55.8748 246.182 56.6268C246.934 57.3778 247.973 57.8088 249.036 57.8088Z" fill="#FBD15B" fill-opacity="0.78"/>
<path d="M290.649 57.8088H290.669C292.898 57.8088 294.705 56.0018 294.705 53.7728C294.705 51.5438 292.898 49.7368 290.669 49.7368H290.649C288.42 49.7368 286.613 51.5438 286.613 53.7728C286.613 56.0008 288.42 57.8088 290.649 57.8088Z" fill="#FBD15B" fill-opacity="0.78"/>
<path d="M269.838 57.8088H269.858C272.087 57.8088 273.894 56.0018 273.894 53.7728C273.894 51.5438 272.087 49.7368 269.858 49.7368H269.838C267.609 49.7368 265.802 51.5438 265.802 53.7728C265.801 56.0008 267.608 57.8088 269.838 57.8088Z" fill="#FBD15B" fill-opacity="0.78"/>
<path d="M311.47 57.8088C312.533 57.8088 313.572 57.3778 314.324 56.6268C315.075 55.8748 315.506 54.8358 315.506 53.7728C315.506 52.7098 315.075 51.6698 314.324 50.9188C313.572 50.1678 312.533 49.7368 311.47 49.7368C310.407 49.7368 309.367 50.1668 308.616 50.9188C307.864 51.6708 307.434 52.7098 307.434 53.7728C307.434 54.8358 307.864 55.8748 308.616 56.6268C309.368 57.3778 310.407 57.8088 311.47 57.8088Z" fill="#FBD15B" fill-opacity="0.78"/>
<path d="M249.036 74.3879C250.099 74.3879 251.138 73.9579 251.89 73.2059C252.642 72.4549 253.072 71.4149 253.072 70.3519C253.072 69.2889 252.641 68.2489 251.89 67.4979C251.138 66.7459 250.099 66.3159 249.036 66.3159C247.973 66.3159 246.933 66.7469 246.182 67.4979C245.431 68.2489 245 69.2889 245 70.3519C245 71.4149 245.431 72.4539 246.182 73.2059C246.934 73.9569 247.973 74.3879 249.036 74.3879Z" fill="#FBD15B" fill-opacity="0.78"/>
<path d="M290.649 74.3879H290.669C292.898 74.3879 294.705 72.5809 294.705 70.3519C294.705 68.1229 292.898 66.3159 290.669 66.3159H290.649C288.42 66.3159 286.613 68.1229 286.613 70.3519C286.613 72.5809 288.42 74.3879 290.649 74.3879Z" fill="#FBD15B" fill-opacity="0.78"/>
<path d="M269.838 74.3879H269.858C272.087 74.3879 273.894 72.5809 273.894 70.3519C273.894 68.1229 272.087 66.3159 269.858 66.3159H269.838C267.609 66.3159 265.802 68.1229 265.802 70.3519C265.801 72.5809 267.608 74.3879 269.838 74.3879Z" fill="#FBD15B" fill-opacity="0.78"/>
<path d="M311.47 74.3879C312.533 74.3879 313.572 73.9579 314.324 73.2059C315.075 72.4549 315.506 71.4149 315.506 70.3519C315.506 69.2889 315.075 68.2489 314.324 67.4979C313.572 66.7459 312.533 66.3159 311.47 66.3159C310.407 66.3159 309.367 66.7469 308.616 67.4979C307.864 68.2489 307.434 69.2889 307.434 70.3519C307.434 71.4149 307.864 72.4539 308.616 73.2059C309.368 73.9569 310.407 74.3879 311.47 74.3879Z" fill="#FBD15B" fill-opacity="0.78"/>
<path d="M701 150H765V201C765 209.837 757.837 217 749 217H701V150Z" fill="#0A335B"/>
</svg>