<svg width="170" height="85" viewBox="0 0 170 85" fill="none" xmlns="http://www.w3.org/2000/svg">
<path d="M1 1H54" stroke="#FBD15B" stroke-width="1.59872" stroke-linecap="round"/>
<path d="M99.2076 67C89.3008 67 81.2695 75.031 81.2695 84.9381H99.2076V67Z" fill="#DC5354"/>
<path d="M99.207 67V84.9381H117.145C117.145 75.031 109.114 67 99.207 67Z" fill="#FBD15B"/>
<path d="M99.2076 74.5723C93.4827 74.5723 88.8418 79.2132 88.8418 84.9381H99.2076V74.5723Z" fill="#E9E5D9"/>
<path d="M99.207 74.5723V84.9381H109.573C109.573 79.2132 104.932 74.5723 99.207 74.5723Z" fill="#F9FBFC"/>
<path d="M117.146 67C117.146 76.9068 125.178 84.9381 135.085 84.9381C135.085 75.031 127.053 67 117.146 67Z" fill="#0A335B"/>
<path d="M153.022 67C143.115 67 135.084 75.031 135.084 84.9381H153.022V67Z" fill="#DC5354"/>
<path d="M152.947 67H170V80.5891C170 82.9436 168.092 84.8523 165.737 84.8523H152.947V67Z" fill="#0A335B"/>
<path d="M90.703 11.4016C91.1515 11.4016 91.5899 11.2197 91.9072 10.9028C92.2245 10.5855 92.406 10.1471 92.406 9.6986C92.406 9.25007 92.2241 8.81166 91.9072 8.49435C91.5899 8.17747 91.1515 7.99561 90.703 7.99561C90.2545 7.99561 89.8156 8.17747 89.4987 8.49435C89.1819 8.81166 89 9.25007 89 9.6986C89 10.1471 89.1819 10.5855 89.4987 10.9028C89.8161 11.2201 90.2545 11.4016 90.703 11.4016Z" fill="#FBD15B" fill-opacity="0.78"/>
<path d="M108.261 11.4016H108.269C109.21 11.4016 109.972 10.6391 109.972 9.6986C109.972 8.75807 109.21 7.99561 108.269 7.99561H108.261C107.32 7.99561 106.558 8.75807 106.558 9.6986C106.558 10.6391 107.32 11.4016 108.261 11.4016Z" fill="#FBD15B" fill-opacity="0.78"/>
<path d="M99.4813 11.4016H99.4897C100.43 11.4016 101.193 10.6391 101.193 9.6986C101.193 8.75807 100.43 7.99561 99.4897 7.99561H99.4813C98.5408 7.99561 97.7783 8.75807 97.7783 9.6986C97.7779 10.6391 98.5404 11.4016 99.4813 11.4016Z" fill="#FBD15B" fill-opacity="0.78"/>
<path d="M117.047 11.4016C117.495 11.4016 117.934 11.2197 118.251 10.9028C118.568 10.5855 118.75 10.1471 118.75 9.6986C118.75 9.25007 118.568 8.81166 118.251 8.49435C117.934 8.17747 117.495 7.99561 117.047 7.99561C116.598 7.99561 116.159 8.17747 115.842 8.49435C115.525 8.81166 115.344 9.25007 115.344 9.6986C115.344 10.1471 115.525 10.5855 115.842 10.9028C116.16 11.2201 116.598 11.4016 117.047 11.4016Z" fill="#FBD15B" fill-opacity="0.78"/>
<path d="M90.703 4.40599C91.1515 4.40599 91.5899 4.22412 91.9072 3.90724C92.2245 3.59036 92.406 3.15153 92.406 2.70299C92.406 2.25446 92.2241 1.81563 91.9072 1.49875C91.5899 1.18144 91.1515 1 90.703 1C90.2545 1 89.8156 1.18144 89.4987 1.49875C89.1819 1.81605 89 2.25446 89 2.70299C89 3.1511 89.1819 3.58993 89.4987 3.90724C89.8161 4.22455 90.2545 4.40599 90.703 4.40599Z" fill="#FBD15B" fill-opacity="0.78"/>
<path d="M108.261 4.40599H108.269C109.21 4.40599 109.972 3.64352 109.972 2.70299C109.972 1.76247 109.21 1 108.269 1H108.261C107.32 1 106.558 1.76247 106.558 2.70299C106.558 3.64352 107.32 4.40599 108.261 4.40599Z" fill="#FBD15B" fill-opacity="0.78"/>
<path d="M99.4813 4.40599H99.4897C100.43 4.40599 101.193 3.64352 101.193 2.70299C101.193 1.76247 100.43 1 99.4897 1H99.4813C98.5408 1 97.7783 1.76247 97.7783 2.70299C97.7779 3.64352 98.5404 4.40599 99.4813 4.40599Z" fill="#FBD15B" fill-opacity="0.78"/>
<path d="M117.047 4.40599C117.495 4.40599 117.934 4.22412 118.251 3.90724C118.568 3.59036 118.75 3.15153 118.75 2.70299C118.75 2.25446 118.568 1.81563 118.251 1.49875C117.934 1.18144 117.495 1 117.047 1C116.598 1 116.159 1.18144 115.842 1.49875C115.525 1.81605 115.344 2.25446 115.344 2.70299C115.344 3.1511 115.525 3.58993 115.842 3.90724C116.16 4.22455 116.598 4.40599 117.047 4.40599Z" fill="#FBD15B" fill-opacity="0.78"/>
<path d="M90.703 18.3967C91.1515 18.3967 91.5899 18.2148 91.9072 17.8979C92.2245 17.5806 92.406 17.1422 92.406 16.6937C92.406 16.2452 92.2241 15.8063 91.9072 15.4895C91.5899 15.1722 91.1515 14.9907 90.703 14.9907C90.2545 14.9907 89.8156 15.1722 89.4987 15.4895C89.1819 15.8068 89 16.2452 89 16.6937C89 17.1422 89.1819 17.5806 89.4987 17.8979C89.8161 18.2148 90.2545 18.3967 90.703 18.3967Z" fill="#FBD15B" fill-opacity="0.78"/>
<path d="M108.261 18.3967H108.269C109.21 18.3967 109.972 17.6342 109.972 16.6937C109.972 15.7532 109.21 14.9907 108.269 14.9907H108.261C107.32 14.9907 106.558 15.7532 106.558 16.6937C106.558 17.6342 107.32 18.3967 108.261 18.3967Z" fill="#FBD15B" fill-opacity="0.78"/>
<path d="M99.4813 18.3967H99.4897C100.43 18.3967 101.193 17.6342 101.193 16.6937C101.193 15.7532 100.43 14.9907 99.4897 14.9907H99.4813C98.5408 14.9907 97.7783 15.7532 97.7783 16.6937C97.7779 17.6342 98.5404 18.3967 99.4813 18.3967Z" fill="#FBD15B" fill-opacity="0.78"/>
<path d="M117.047 18.3967C117.495 18.3967 117.934 18.2148 118.251 17.8979C118.568 17.5806 118.75 17.1422 118.75 16.6937C118.75 16.2452 118.568 15.8063 118.251 15.4895C117.934 15.1722 117.495 14.9907 117.047 14.9907C116.598 14.9907 116.159 15.1722 115.842 15.4895C115.525 15.8068 115.344 16.2452 115.344 16.6937C115.344 17.1422 115.525 17.5806 115.842 17.8979C116.16 18.2148 116.598 18.3967 117.047 18.3967Z" fill="#FBD15B" fill-opacity="0.78"/>
<path d="M90.703 25.3923C91.1515 25.3923 91.5899 25.2105 91.9072 24.8936C92.2245 24.5763 92.406 24.1379 92.406 23.6893C92.406 23.2408 92.2241 22.802 91.9072 22.4851C91.5899 22.1682 91.1515 21.9863 90.703 21.9863C90.2545 21.9863 89.8156 22.1678 89.4987 22.4851C89.1819 22.8024 89 23.2408 89 23.6893C89 24.1379 89.1819 24.5763 89.4987 24.8936C89.8161 25.2105 90.2545 25.3923 90.703 25.3923Z" fill="#FBD15B" fill-opacity="0.78"/>
<path d="M108.261 25.3923H108.269C109.21 25.3923 109.972 24.6298 109.972 23.6893C109.972 22.7488 109.21 21.9863 108.269 21.9863H108.261C107.32 21.9863 106.558 22.7488 106.558 23.6893C106.558 24.6294 107.32 25.3923 108.261 25.3923Z" fill="#FBD15B" fill-opacity="0.78"/>
<path d="M99.4813 25.3923H99.4897C100.43 25.3923 101.193 24.6298 101.193 23.6893C101.193 22.7488 100.43 21.9863 99.4897 21.9863H99.4813C98.5408 21.9863 97.7783 22.7488 97.7783 23.6893C97.7779 24.6294 98.5404 25.3923 99.4813 25.3923Z" fill="#FBD15B" fill-opacity="0.78"/>
<path d="M117.047 25.3923C117.495 25.3923 117.934 25.2105 118.251 24.8936C118.568 24.5763 118.75 24.1379 118.75 23.6893C118.75 23.2408 118.568 22.802 118.251 22.4851C117.934 22.1682 117.495 21.9863 117.047 21.9863C116.598 21.9863 116.159 22.1678 115.842 22.4851C115.525 22.8024 115.344 23.2408 115.344 23.6893C115.344 24.1379 115.525 24.5763 115.842 24.8936C116.16 25.2105 116.598 25.3923 117.047 25.3923Z" fill="#FBD15B" fill-opacity="0.78"/>
<path d="M90.703 32.3879C91.1515 32.3879 91.5899 32.2065 91.9072 31.8892C92.2245 31.5723 92.406 31.1335 92.406 30.6849C92.406 30.2364 92.2241 29.7976 91.9072 29.4807C91.5899 29.1634 91.1515 28.9819 90.703 28.9819C90.2545 28.9819 89.8156 29.1638 89.4987 29.4807C89.1819 29.7976 89 30.2364 89 30.6849C89 31.1335 89.1819 31.5719 89.4987 31.8892C89.8161 32.206 90.2545 32.3879 90.703 32.3879Z" fill="#FBD15B" fill-opacity="0.78"/>
<path d="M108.261 32.3879H108.269C109.21 32.3879 109.972 31.6255 109.972 30.6849C109.972 29.7444 109.21 28.9819 108.269 28.9819H108.261C107.32 28.9819 106.558 29.7444 106.558 30.6849C106.558 31.6255 107.32 32.3879 108.261 32.3879Z" fill="#FBD15B" fill-opacity="0.78"/>
<path d="M99.4813 32.3879H99.4897C100.43 32.3879 101.193 31.6255 101.193 30.6849C101.193 29.7444 100.43 28.9819 99.4897 28.9819H99.4813C98.5408 28.9819 97.7783 29.7444 97.7783 30.6849C97.7779 31.6255 98.5404 32.3879 99.4813 32.3879Z" fill="#FBD15B" fill-opacity="0.78"/>
<path d="M117.047 32.3879C117.495 32.3879 117.934 32.2065 118.251 31.8892C118.568 31.5723 118.75 31.1335 118.75 30.6849C118.75 30.2364 118.568 29.7976 118.251 29.4807C117.934 29.1634 117.495 28.9819 117.047 28.9819C116.598 28.9819 116.159 29.1638 115.842 29.4807C115.525 29.7976 115.344 30.2364 115.344 30.6849C115.344 31.1335 115.525 31.5719 115.842 31.8892C116.16 32.206 116.598 32.3879 117.047 32.3879Z" fill="#FBD15B" fill-opacity="0.78"/>
</svg>