<svg width="520" height="218" viewBox="0 0 520 218" fill="none" xmlns="http://www.w3.org/2000/svg">
  <path d="M254.322 150C217.141 150 187 180.141 187 217.322H254.322V150Z" fill="#DC5354" />
  <path d="M254.322 150V217.322H321.644C321.644 180.141 291.503 150 254.322 150Z" fill="#FBD15B" />
  <path d="M254.322 178.419C232.836 178.419 215.419 195.836 215.419 217.322H254.322V178.419Z" fill="#E9E5D9" />
  <path d="M254.322 178.419V217.322H293.225C293.225 195.836 275.808 178.419 254.322 178.419Z" fill="#F9FBFC" />
  <path d="M321.644 150C321.644 187.181 351.785 217.322 388.966 217.322C388.966 180.141 358.825 150 321.644 150Z"
    fill="#0A335B" />
  <path d="M456.287 150C419.106 150 388.965 180.141 388.965 217.322H456.287V150Z" fill="#DC5354" />
  <path
    d="M4.03601 24.6511C5.09901 24.6511 6.13801 24.2201 6.89001 23.4691C7.64201 22.7171 8.07202 21.6781 8.07202 20.6151C8.07202 19.5521 7.64101 18.5131 6.89001 17.7611C6.13801 17.0101 5.09901 16.5791 4.03601 16.5791C2.97301 16.5791 1.93301 17.0101 1.18201 17.7611C0.431007 18.5131 0 19.5521 0 20.6151C0 21.6781 0.431007 22.7171 1.18201 23.4691C1.93401 24.2211 2.97301 24.6511 4.03601 24.6511Z"
    fill="#FBD15B" fill-opacity="0.78" />
  <path
    d="M45.6488 24.6511H45.6688C47.8978 24.6511 49.7048 22.8441 49.7048 20.6151C49.7048 18.3861 47.8978 16.5791 45.6688 16.5791H45.6488C43.4198 16.5791 41.6128 18.3861 41.6128 20.6151C41.6128 22.8441 43.4198 24.6511 45.6488 24.6511Z"
    fill="#FBD15B" fill-opacity="0.78" />
  <path
    d="M24.8378 24.6511H24.8577C27.0867 24.6511 28.8937 22.8441 28.8937 20.6151C28.8937 18.3861 27.0867 16.5791 24.8577 16.5791H24.8378C22.6088 16.5791 20.8018 18.3861 20.8018 20.6151C20.8008 22.8441 22.6078 24.6511 24.8378 24.6511Z"
    fill="#FBD15B" fill-opacity="0.78" />
  <path
    d="M66.47 24.6511C67.533 24.6511 68.572 24.2201 69.324 23.4691C70.075 22.7171 70.506 21.6781 70.506 20.6151C70.506 19.5521 70.075 18.5131 69.324 17.7611C68.572 17.0101 67.533 16.5791 66.47 16.5791C65.407 16.5791 64.367 17.0101 63.616 17.7611C62.864 18.5131 62.4341 19.5521 62.4341 20.6151C62.4341 21.6781 62.864 22.7171 63.616 23.4691C64.368 24.2211 65.407 24.6511 66.47 24.6511Z"
    fill="#FBD15B" fill-opacity="0.78" />
  <path
    d="M4.03601 8.07202C5.09901 8.07202 6.13801 7.64101 6.89001 6.89001C7.64201 6.13901 8.07202 5.09901 8.07202 4.03601C8.07202 2.97301 7.64101 1.93301 6.89001 1.18201C6.13801 0.430007 5.09901 0 4.03601 0C2.97301 0 1.93301 0.430007 1.18201 1.18201C0.431007 1.93401 0 2.97301 0 4.03601C0 5.09801 0.431007 6.13801 1.18201 6.89001C1.93401 7.64201 2.97301 8.07202 4.03601 8.07202Z"
    fill="#FBD15B" fill-opacity="0.78" />
  <path
    d="M45.6488 8.07202H45.6688C47.8978 8.07202 49.7048 6.26501 49.7048 4.03601C49.7048 1.80701 47.8978 0 45.6688 0H45.6488C43.4198 0 41.6128 1.80701 41.6128 4.03601C41.6128 6.26501 43.4198 8.07202 45.6488 8.07202Z"
    fill="#FBD15B" fill-opacity="0.78" />
  <path
    d="M24.8378 8.07202H24.8577C27.0867 8.07202 28.8937 6.26501 28.8937 4.03601C28.8937 1.80701 27.0867 0 24.8577 0H24.8378C22.6088 0 20.8018 1.80701 20.8018 4.03601C20.8008 6.26501 22.6078 8.07202 24.8378 8.07202Z"
    fill="#FBD15B" fill-opacity="0.78" />
  <path
    d="M66.47 8.07202C67.533 8.07202 68.572 7.64101 69.324 6.89001C70.075 6.13901 70.506 5.09901 70.506 4.03601C70.506 2.97301 70.075 1.93301 69.324 1.18201C68.572 0.430007 67.533 0 66.47 0C65.407 0 64.367 0.430007 63.616 1.18201C62.864 1.93401 62.4341 2.97301 62.4341 4.03601C62.4341 5.09801 62.864 6.13801 63.616 6.89001C64.368 7.64201 65.407 8.07202 66.47 8.07202Z"
    fill="#FBD15B" fill-opacity="0.78" />
  <path
    d="M4.03601 41.2302C5.09901 41.2302 6.13801 40.7992 6.89001 40.0482C7.64201 39.2962 8.07202 38.2572 8.07202 37.1942C8.07202 36.1312 7.64101 35.0912 6.89001 34.3402C6.13801 33.5882 5.09901 33.1582 4.03601 33.1582C2.97301 33.1582 1.93301 33.5882 1.18201 34.3402C0.431007 35.0922 0 36.1312 0 37.1942C0 38.2572 0.431007 39.2962 1.18201 40.0482C1.93401 40.7992 2.97301 41.2302 4.03601 41.2302Z"
    fill="#FBD15B" fill-opacity="0.78" />
  <path
    d="M45.6488 41.2302H45.6688C47.8978 41.2302 49.7048 39.4232 49.7048 37.1942C49.7048 34.9652 47.8978 33.1582 45.6688 33.1582H45.6488C43.4198 33.1582 41.6128 34.9652 41.6128 37.1942C41.6128 39.4232 43.4198 41.2302 45.6488 41.2302Z"
    fill="#FBD15B" fill-opacity="0.78" />
  <path
    d="M24.8378 41.2302H24.8577C27.0867 41.2302 28.8937 39.4232 28.8937 37.1942C28.8937 34.9652 27.0867 33.1582 24.8577 33.1582H24.8378C22.6088 33.1582 20.8018 34.9652 20.8018 37.1942C20.8008 39.4232 22.6078 41.2302 24.8378 41.2302Z"
    fill="#FBD15B" fill-opacity="0.78" />
  <path
    d="M66.47 41.2302C67.533 41.2302 68.572 40.7992 69.324 40.0482C70.075 39.2962 70.506 38.2572 70.506 37.1942C70.506 36.1312 70.075 35.0912 69.324 34.3402C68.572 33.5882 67.533 33.1582 66.47 33.1582C65.407 33.1582 64.367 33.5882 63.616 34.3402C62.864 35.0922 62.4341 36.1312 62.4341 37.1942C62.4341 38.2572 62.864 39.2962 63.616 40.0482C64.368 40.7992 65.407 41.2302 66.47 41.2302Z"
    fill="#FBD15B" fill-opacity="0.78" />
  <path
    d="M4.03601 57.8088C5.09901 57.8088 6.13801 57.3778 6.89001 56.6268C7.64201 55.8748 8.07202 54.8358 8.07202 53.7728C8.07202 52.7098 7.64101 51.6698 6.89001 50.9188C6.13801 50.1678 5.09901 49.7368 4.03601 49.7368C2.97301 49.7368 1.93301 50.1668 1.18201 50.9188C0.431007 51.6708 0 52.7098 0 53.7728C0 54.8358 0.431007 55.8748 1.18201 56.6268C1.93401 57.3778 2.97301 57.8088 4.03601 57.8088Z"
    fill="#FBD15B" fill-opacity="0.78" />
  <path
    d="M45.6488 57.8088H45.6688C47.8978 57.8088 49.7048 56.0018 49.7048 53.7728C49.7048 51.5438 47.8978 49.7368 45.6688 49.7368H45.6488C43.4198 49.7368 41.6128 51.5438 41.6128 53.7728C41.6128 56.0008 43.4198 57.8088 45.6488 57.8088Z"
    fill="#FBD15B" fill-opacity="0.78" />
  <path
    d="M24.8378 57.8088H24.8577C27.0867 57.8088 28.8937 56.0018 28.8937 53.7728C28.8937 51.5438 27.0867 49.7368 24.8577 49.7368H24.8378C22.6088 49.7368 20.8018 51.5438 20.8018 53.7728C20.8008 56.0008 22.6078 57.8088 24.8378 57.8088Z"
    fill="#FBD15B" fill-opacity="0.78" />
  <path
    d="M66.47 57.8088C67.533 57.8088 68.572 57.3778 69.324 56.6268C70.075 55.8748 70.506 54.8358 70.506 53.7728C70.506 52.7098 70.075 51.6698 69.324 50.9188C68.572 50.1678 67.533 49.7368 66.47 49.7368C65.407 49.7368 64.367 50.1668 63.616 50.9188C62.864 51.6708 62.4341 52.7098 62.4341 53.7728C62.4341 54.8358 62.864 55.8748 63.616 56.6268C64.368 57.3778 65.407 57.8088 66.47 57.8088Z"
    fill="#FBD15B" fill-opacity="0.78" />
  <path
    d="M4.03601 74.3879C5.09901 74.3879 6.13801 73.9579 6.89001 73.2059C7.64201 72.4549 8.07202 71.4149 8.07202 70.3519C8.07202 69.2889 7.64101 68.2489 6.89001 67.4979C6.13801 66.7459 5.09901 66.3159 4.03601 66.3159C2.97301 66.3159 1.93301 66.7469 1.18201 67.4979C0.431007 68.2489 0 69.2889 0 70.3519C0 71.4149 0.431007 72.4539 1.18201 73.2059C1.93401 73.9569 2.97301 74.3879 4.03601 74.3879Z"
    fill="#FBD15B" fill-opacity="0.78" />
  <path
    d="M45.6488 74.3879H45.6688C47.8978 74.3879 49.7048 72.5809 49.7048 70.3519C49.7048 68.1229 47.8978 66.3159 45.6688 66.3159H45.6488C43.4198 66.3159 41.6128 68.1229 41.6128 70.3519C41.6128 72.5809 43.4198 74.3879 45.6488 74.3879Z"
    fill="#FBD15B" fill-opacity="0.78" />
  <path
    d="M24.8378 74.3879H24.8577C27.0867 74.3879 28.8937 72.5809 28.8937 70.3519C28.8937 68.1229 27.0867 66.3159 24.8577 66.3159H24.8378C22.6088 66.3159 20.8018 68.1229 20.8018 70.3519C20.8008 72.5809 22.6078 74.3879 24.8378 74.3879Z"
    fill="#FBD15B" fill-opacity="0.78" />
  <path
    d="M66.47 74.3879C67.533 74.3879 68.572 73.9579 69.324 73.2059C70.075 72.4549 70.506 71.4149 70.506 70.3519C70.506 69.2889 70.075 68.2489 69.324 67.4979C68.572 66.7459 67.533 66.3159 66.47 66.3159C65.407 66.3159 64.367 66.7469 63.616 67.4979C62.864 68.2489 62.4341 69.2889 62.4341 70.3519C62.4341 71.4149 62.864 72.4539 63.616 73.2059C64.368 73.9569 65.407 74.3879 66.47 74.3879Z"
    fill="#FBD15B" fill-opacity="0.78" />
  <path d="M456 150H520V201C520 209.837 512.837 217 504 217H456V150Z" fill="#0A335B" />
</svg>