<svg width="39" height="39" viewBox="0 0 39 39" fill="none" xmlns="http://www.w3.org/2000/svg">
<g clip-path="url(#clip0_947_227)">
<path d="M14.5673 24.2789L24.2788 14.5674" stroke="#7934ED" stroke-width="2.10417" stroke-linecap="round" stroke-linejoin="round"/>
<path d="M15.3766 16.186C15.8235 16.186 16.1859 15.8236 16.1859 15.3767C16.1859 14.9297 15.8235 14.5674 15.3766 14.5674C14.9296 14.5674 14.5673 14.9297 14.5673 15.3767C14.5673 15.8236 14.9296 16.186 15.3766 16.186Z" fill="#7934ED" stroke="#7934ED" stroke-width="2.10417" stroke-linecap="round" stroke-linejoin="round"/>
<path d="M23.4695 24.2787C23.9164 24.2787 24.2787 23.9164 24.2787 23.4695C24.2787 23.0225 23.9164 22.6602 23.4695 22.6602C23.0225 22.6602 22.6602 23.0225 22.6602 23.4695C22.6602 23.9164 23.0225 24.2787 23.4695 24.2787Z" fill="#7934ED" stroke="#7934ED" stroke-width="2.10417" stroke-linecap="round" stroke-linejoin="round"/>
<path d="M8.09286 11.6539C8.09286 10.7095 8.46802 9.80374 9.13582 9.13594C9.80362 8.46815 10.7093 8.09298 11.6538 8.09298H13.2723C14.2126 8.09244 15.1144 7.72006 15.7812 7.05708L16.9142 5.92407C17.2451 5.59129 17.6385 5.3272 18.0719 5.147C18.5052 4.96679 18.9699 4.87402 19.4392 4.87402C19.9085 4.87402 20.3732 4.96679 20.8065 5.147C21.2398 5.3272 21.6333 5.59129 21.9642 5.92407L23.0972 7.05708C23.7639 7.72006 24.6658 8.09244 25.606 8.09298H27.2246C28.169 8.09298 29.0747 8.46815 29.7425 9.13594C30.4103 9.80374 30.7855 10.7095 30.7855 11.6539V13.2725C30.786 14.2127 31.1584 15.1146 31.8214 15.7813L32.9544 16.9143C33.2872 17.2452 33.5513 17.6386 33.7315 18.072C33.9117 18.5053 34.0044 18.97 34.0044 19.4393C34.0044 19.9086 33.9117 20.3733 33.7315 20.8066C33.5513 21.2399 33.2872 21.6334 32.9544 21.9643L31.8214 23.0973C31.1584 23.764 30.786 24.6659 30.7855 25.6061V27.2247C30.7855 28.1691 30.4103 29.0749 29.7425 29.7426C29.0747 30.4104 28.169 30.7856 27.2246 30.7856H25.606C24.6658 30.7861 23.7639 31.1585 23.0972 31.8215L21.9642 32.9545C21.6333 33.2873 21.2398 33.5514 20.8065 33.7316C20.3732 33.9118 19.9085 34.0046 19.4392 34.0046C18.9699 34.0046 18.5052 33.9118 18.0719 33.7316C17.6385 33.5514 17.2451 33.2873 16.9142 32.9545L15.7812 31.8215C15.1144 31.1585 14.2126 30.7861 13.2723 30.7856H11.6538C10.7093 30.7856 9.80362 30.4104 9.13582 29.7426C8.46802 29.0749 8.09286 28.1691 8.09286 27.2247V25.6061C8.09232 24.6659 7.71994 23.764 7.05696 23.0973L5.92395 21.9643C5.59117 21.6334 5.32708 21.2399 5.14688 20.8066C4.96667 20.3733 4.8739 19.9086 4.8739 19.4393C4.8739 18.97 4.96667 18.5053 5.14688 18.072C5.32708 17.6386 5.59117 17.2452 5.92395 16.9143L7.05696 15.7813C7.71994 15.1146 8.09232 14.2127 8.09286 13.2725V11.6539Z" stroke="#7934ED" stroke-width="2.10417" stroke-linecap="round" stroke-linejoin="round"/>
</g>
<defs>
<clipPath id="clip0_947_227">
<rect width="38.8462" height="38.8462" fill="white"/>
</clipPath>
</defs>
</svg>