<svg width="40" height="39" viewBox="0 0 40 39" fill="none" xmlns="http://www.w3.org/2000/svg">
<g clip-path="url(#clip0_947_272)">
<path d="M13.8923 11.3303C13.8923 13.0474 14.5745 14.6942 15.7886 15.9084C17.0028 17.1226 18.6496 17.8047 20.3667 17.8047C22.0838 17.8047 23.7306 17.1226 24.9448 15.9084C26.1589 14.6942 26.8411 13.0474 26.8411 11.3303C26.8411 9.61321 26.1589 7.96643 24.9448 6.75225C23.7306 5.53807 22.0838 4.85596 20.3667 4.85596C18.6496 4.85596 17.0028 5.53807 15.7886 6.75225C14.5745 7.96643 13.8923 9.61321 13.8923 11.3303Z" stroke="#7934ED" stroke-width="2.10417" stroke-linecap="round" stroke-linejoin="round"/>
<path d="M10.655 33.9903V30.7532C10.655 29.0361 11.3371 27.3893 12.5513 26.1751C13.7655 24.9609 15.4123 24.2788 17.1294 24.2788H23.6037" stroke="#7934ED" stroke-width="2.10417" stroke-linecap="round" stroke-linejoin="round"/>
<path d="M25.2224 30.7533L28.4596 33.9905L34.934 27.5161" stroke="#7934ED" stroke-width="2.10417" stroke-linecap="round" stroke-linejoin="round"/>
</g>
<defs>
<clipPath id="clip0_947_272">
<rect width="38.8462" height="38.8462" fill="white" transform="translate(0.943604)"/>
</clipPath>
</defs>
</svg>