<svg width="39" height="39" viewBox="0 0 39 39" fill="none" xmlns="http://www.w3.org/2000/svg">
<g clip-path="url(#clip0_947_262)">
<path d="M11.3301 17.8046C11.3301 16.946 11.6711 16.1226 12.2782 15.5155C12.8853 14.9084 13.7087 14.5674 14.5673 14.5674H30.7532C31.6117 14.5674 32.4351 14.9084 33.0422 15.5155C33.6493 16.1226 33.9903 16.946 33.9903 17.8046V27.5161C33.9903 28.3747 33.6493 29.198 33.0422 29.8051C32.4351 30.4122 31.6117 30.7533 30.7532 30.7533H14.5673C13.7087 30.7533 12.8853 30.4122 12.2782 29.8051C11.6711 29.198 11.3301 28.3747 11.3301 27.5161V17.8046Z" stroke="#A7A7A7" stroke-width="1.61859" stroke-linecap="round" stroke-linejoin="round"/>
<path d="M19.4231 22.66C19.4231 23.5186 19.7642 24.342 20.3712 24.9491C20.9783 25.5562 21.8017 25.8972 22.6603 25.8972C23.5188 25.8972 24.3422 25.5562 24.9493 24.9491C25.5564 24.342 25.8975 23.5186 25.8975 22.66C25.8975 21.8015 25.5564 20.9781 24.9493 20.371C24.3422 19.7639 23.5188 19.4229 22.6603 19.4229C21.8017 19.4229 20.9783 19.7639 20.3712 20.371C19.7642 20.9781 19.4231 21.8015 19.4231 22.66Z" stroke="#A7A7A7" stroke-width="1.61859" stroke-linecap="round" stroke-linejoin="round"/>
<path d="M27.516 14.5671V11.33C27.516 10.4714 27.1749 9.64801 26.5678 9.04092C25.9607 8.43383 25.1373 8.09277 24.2788 8.09277H8.09289C7.23434 8.09277 6.41095 8.43383 5.80386 9.04092C5.19677 9.64801 4.85571 10.4714 4.85571 11.33V21.0415C4.85571 21.9 5.19677 22.7234 5.80386 23.3305C6.41095 23.9376 7.23434 24.2787 8.09289 24.2787H11.3301" stroke="#A7A7A7" stroke-width="1.61859" stroke-linecap="round" stroke-linejoin="round"/>
</g>
<defs>
<clipPath id="clip0_947_262">
<rect width="38.8462" height="38.8462" fill="white"/>
</clipPath>
</defs>
</svg>