<svg width="40" height="39" viewBox="0 0 40 39" fill="none" xmlns="http://www.w3.org/2000/svg">
<g clip-path="url(#clip0_947_252)">
<path d="M5.71875 19.4233C5.71875 21.3363 6.09554 23.2305 6.82762 24.9979C7.5597 26.7653 8.63272 28.3712 9.98542 29.7239C11.3381 31.0766 12.944 32.1496 14.7114 32.8817C16.4788 33.6138 18.3731 33.9906 20.2861 33.9906C22.1991 33.9906 24.0933 33.6138 25.8607 32.8817C27.6281 32.1496 29.234 31.0766 30.5867 29.7239C31.9394 28.3712 33.0124 26.7653 33.7445 24.9979C34.4766 23.2305 34.8534 21.3363 34.8534 19.4233C34.8534 17.5103 34.4766 15.616 33.7445 13.8486C33.0124 12.0812 31.9394 10.4753 30.5867 9.12262C29.234 7.76992 27.6281 6.6969 25.8607 5.96483C24.0933 5.23275 22.1991 4.85596 20.2861 4.85596C18.3731 4.85596 16.4788 5.23275 14.7114 5.96483C12.944 6.6969 11.3381 7.76992 9.98542 9.12262C8.63272 10.4753 7.5597 12.0812 6.82762 13.8486C6.09554 15.616 5.71875 17.5103 5.71875 19.4233Z" stroke="#7934ED" stroke-width="2.10417" stroke-linecap="round" stroke-linejoin="round"/>
<path d="M15.4304 19.4232L18.6676 22.6604L25.142 16.186" stroke="#7934ED" stroke-width="2.10417" stroke-linecap="round" stroke-linejoin="round"/>
</g>
<defs>
<clipPath id="clip0_947_252">
<rect width="38.8462" height="38.8462" fill="white" transform="translate(0.863037)"/>
</clipPath>
</defs>
</svg>