<svg width="66" height="60" viewBox="0 0 66 60" fill="none" xmlns="http://www.w3.org/2000/svg">
<circle cx="25.8823" cy="34.1177" r="25.8823" fill="#FFF0E6"/>
<g clip-path="url(#clip0_0_1)">
<path d="M26.0979 10.4463C26.0979 9.91714 26.3081 9.40968 26.6823 9.03552C27.0564 8.66137 27.5639 8.45117 28.093 8.45117H36.0734C36.6025 8.45117 37.11 8.66137 37.4841 9.03552C37.8583 9.40968 38.0685 9.91714 38.0685 10.4463V18.4267C38.0685 18.9558 37.8583 19.4633 37.4841 19.8374C37.11 20.2116 36.6025 20.4218 36.0734 20.4218H28.093C27.5639 20.4218 27.0564 20.2116 26.6823 19.8374C26.3081 19.4633 26.0979 18.9558 26.0979 18.4267V10.4463Z" stroke="#BB7B50" stroke-width="2.6034" stroke-linecap="round" stroke-linejoin="round"/>
<path d="M26.0979 30.3984C26.0979 29.8693 26.3081 29.3618 26.6823 28.9877C27.0564 28.6135 27.5639 28.4033 28.093 28.4033H36.0734C36.6025 28.4033 37.11 28.6135 37.4841 28.9877C37.8583 29.3618 38.0685 29.8693 38.0685 30.3984V38.3788C38.0685 38.9079 37.8583 39.4154 37.4841 39.7896C37.11 40.1637 36.6025 40.3739 36.0734 40.3739H28.093C27.5639 40.3739 27.0564 40.1637 26.6823 39.7896C26.3081 39.4154 26.0979 38.9079 26.0979 38.3788V30.3984Z" stroke="#BB7B50" stroke-width="2.6034" stroke-linecap="round" stroke-linejoin="round"/>
<path d="M46.0491 30.3984C46.0491 29.8693 46.2593 29.3618 46.6334 28.9877C47.0076 28.6135 47.515 28.4033 48.0442 28.4033H56.0246C56.5537 28.4033 57.0612 28.6135 57.4353 28.9877C57.8095 29.3618 58.0197 29.8693 58.0197 30.3984V38.3788C58.0197 38.9079 57.8095 39.4154 57.4353 39.7896C57.0612 40.1637 56.5537 40.3739 56.0246 40.3739H48.0442C47.515 40.3739 47.0076 40.1637 46.6334 39.7896C46.2593 39.4154 46.0491 38.9079 46.0491 38.3788V30.3984Z" stroke="#BB7B50" stroke-width="2.6034" stroke-linecap="round" stroke-linejoin="round"/>
<path d="M46.0491 14.4355H58.0197" stroke="#BB7B50" stroke-width="2.6034" stroke-linecap="round" stroke-linejoin="round"/>
<path d="M52.0344 8.45117V20.4218" stroke="#BB7B50" stroke-width="2.6034" stroke-linecap="round" stroke-linejoin="round"/>
</g>
<defs>
<clipPath id="clip0_0_1">
<rect width="47.8823" height="47.8823" fill="white" transform="translate(18.1177 0.470703)"/>
</clipPath>
</defs>
</svg>