<svg width="61" height="61" viewBox="0 0 61 61" fill="none" xmlns="http://www.w3.org/2000/svg">
<circle cx="25.5" cy="35.5" r="25.5" fill="#ECEAFE"/>
<g clip-path="url(#clip0_0_1)">
<path d="M36.9997 6.82031C41.6713 10.9535 47.7686 13.1054 53.9997 12.8203C54.9068 15.9063 55.1844 19.1432 54.8159 22.3387C54.4474 25.5341 53.4403 28.6229 51.8545 31.4214C50.2686 34.2199 48.1364 36.6711 45.5846 38.6293C43.0327 40.5875 40.1132 42.0127 36.9997 42.8203C33.8861 42.0127 30.9666 40.5875 28.4148 38.6293C25.8629 36.6711 23.7307 34.2199 22.1449 31.4214C20.559 28.6229 19.5519 25.5341 19.1834 22.3387C18.8149 19.1432 19.0925 15.9063 19.9997 12.8203C26.2307 13.1054 32.328 10.9535 36.9997 6.82031Z" stroke="#6B62BD" stroke-width="2.60979" stroke-linecap="round" stroke-linejoin="round"/>
<path d="M35.001 22.8198C35.001 23.3503 35.2117 23.859 35.5868 24.234C35.9618 24.6091 36.4705 24.8198 37.001 24.8198C37.5314 24.8198 38.0401 24.6091 38.4152 24.234C38.7903 23.859 39.001 23.3503 39.001 22.8198C39.001 22.2894 38.7903 21.7807 38.4152 21.4056C38.0401 21.0305 37.5314 20.8198 37.001 20.8198C36.4705 20.8198 35.9618 21.0305 35.5868 21.4056C35.2117 21.7807 35.001 22.2894 35.001 22.8198Z" stroke="#6B62BD" stroke-width="2.60979" stroke-linecap="round" stroke-linejoin="round"/>
<path d="M37 24.8203V29.8203" stroke="#6B62BD" stroke-width="2.60979" stroke-linecap="round" stroke-linejoin="round"/>
</g>
<defs>
<clipPath id="clip0_0_1">
<rect width="48" height="48" fill="white" transform="translate(13 0.820312)"/>
</clipPath>
</defs>
</svg>