<svg width="60" height="61" viewBox="0 0 60 61" fill="none" xmlns="http://www.w3.org/2000/svg">
<circle cx="25.5" cy="35.5" r="25.5" fill="#E5F7FF"/>
<path d="M38.541 3.97127L49.2264 8.55018C50.1464 8.94502 50.8805 9.6791 51.2772 10.601L55.8542 21.2845C56.2759 22.2659 56.2759 23.3775 55.8542 24.3589L51.2753 35.0443C50.8805 35.9643 50.1464 36.6984 49.2245 37.0951L38.541 41.6721C37.5596 42.0938 36.448 42.0938 35.4666 41.6721L24.7812 37.0932C23.8595 36.6984 23.1251 35.964 22.7304 35.0423L18.1534 24.3589C17.9452 23.8731 17.8379 23.3502 17.8379 22.8217C17.8379 22.2932 17.9452 21.7703 18.1534 21.2845L22.7323 10.5991C23.1271 9.6791 23.8612 8.94502 24.7831 8.54827L35.4666 3.97127C35.9524 3.7631 36.4753 3.65576 37.0038 3.65576C37.5323 3.65576 38.0552 3.7631 38.541 3.97127Z" stroke="#4B95CA" stroke-width="3.14146" stroke-linecap="round" stroke-linejoin="round"/>
<path d="M37 15.1528V22.8195" stroke="#4B95CA" stroke-width="3.14146" stroke-linecap="round" stroke-linejoin="round"/>
<path d="M37 30.4873H37.0198" stroke="#4B95CA" stroke-width="3.14146" stroke-linecap="round" stroke-linejoin="round"/>
</svg>