<svg width="62" height="61" viewBox="0 0 62 61" fill="none" xmlns="http://www.w3.org/2000/svg">
<circle cx="25.5" cy="35.5" r="25.5" fill="#FFF0E6"/>
<path d="M32 7.81982H28C26.9391 7.81982 25.9217 8.24125 25.1716 8.9914C24.4214 9.74154 24 10.759 24 11.8198V35.8198C24 36.8807 24.4214 37.8981 25.1716 38.6482C25.9217 39.3984 26.9391 39.8198 28 39.8198H48C49.0609 39.8198 50.0783 39.3984 50.8284 38.6482C51.5786 37.8981 52 36.8807 52 35.8198V11.8198C52 10.759 51.5786 9.74154 50.8284 8.9914C50.0783 8.24125 49.0609 7.81982 48 7.81982H44" stroke="#BB7B50" stroke-width="2.60979" stroke-linecap="round" stroke-linejoin="round"/>
<path d="M31.998 7.82031C31.998 6.75945 32.4195 5.74203 33.1696 4.99189C33.9198 4.24174 34.9372 3.82031 35.998 3.82031H39.998C41.0589 3.82031 42.0763 4.24174 42.8265 4.99189C43.5766 5.74203 43.998 6.75945 43.998 7.82031C43.998 8.88118 43.5766 9.89859 42.8265 10.6487C42.0763 11.3989 41.0589 11.8203 39.998 11.8203H35.998C34.9372 11.8203 33.9198 11.3989 33.1696 10.6487C32.4195 9.89859 31.998 8.88118 31.998 7.82031Z" stroke="#BB7B50" stroke-width="2.60979" stroke-linecap="round" stroke-linejoin="round"/>
<path d="M31.998 31.8203V21.8203" stroke="#BB7B50" stroke-width="2.60979" stroke-linecap="round" stroke-linejoin="round"/>
<path d="M38 31.8208V29.8208" stroke="#BB7B50" stroke-width="2.60979" stroke-linecap="round" stroke-linejoin="round"/>
<path d="M43.998 31.8198V25.8198" stroke="#BB7B50" stroke-width="2.60979" stroke-linecap="round" stroke-linejoin="round"/>
</svg>