<svg width="695" height="153" viewBox="0 0 695 153" fill="none" xmlns="http://www.w3.org/2000/svg">
<circle cx="664.5" cy="30.5" r="28.5" stroke="#567AF7" stroke-width="4"/>
<circle cx="118" cy="149" r="4" transform="rotate(-90 118 149)" fill="#567AF7"/>
<circle cx="118" cy="128" r="4" transform="rotate(-90 118 128)" fill="#567AF7"/>
<circle cx="118" cy="107" r="4" transform="rotate(-90 118 107)" fill="#567AF7"/>
<circle cx="118" cy="86" r="4" transform="rotate(-90 118 86)" fill="#567AF7"/>
<circle cx="137" cy="149" r="4" transform="rotate(-90 137 149)" fill="#567AF7"/>
<circle cx="137" cy="128" r="4" transform="rotate(-90 137 128)" fill="#567AF7"/>
<circle cx="137" cy="107" r="4" transform="rotate(-90 137 107)" fill="#567AF7"/>
<circle cx="137" cy="86" r="4" transform="rotate(-90 137 86)" fill="#567AF7"/>
<circle cx="156" cy="149" r="4" transform="rotate(-90 156 149)" fill="#567AF7"/>
<circle cx="156" cy="128" r="4" transform="rotate(-90 156 128)" fill="#567AF7"/>
<circle cx="156" cy="107" r="4" transform="rotate(-90 156 107)" fill="#567AF7"/>
<circle cx="156" cy="86" r="4" transform="rotate(-90 156 86)" fill="#567AF7"/>
<circle cx="175" cy="149" r="4" transform="rotate(-90 175 149)" fill="#567AF7"/>
<circle cx="175" cy="128" r="4" transform="rotate(-90 175 128)" fill="#567AF7"/>
<circle cx="175" cy="107" r="4" transform="rotate(-90 175 107)" fill="#567AF7"/>
<circle cx="175" cy="86" r="4" transform="rotate(-90 175 86)" fill="#567AF7"/>
<circle cx="194" cy="149" r="4" transform="rotate(-90 194 149)" fill="#567AF7"/>
<circle cx="194" cy="128" r="4" transform="rotate(-90 194 128)" fill="#567AF7"/>
<circle cx="194" cy="107" r="4" transform="rotate(-90 194 107)" fill="#567AF7"/>
<circle cx="194" cy="86" r="4" transform="rotate(-90 194 86)" fill="#567AF7"/>
<circle cx="213" cy="149" r="4" transform="rotate(-90 213 149)" fill="#567AF7"/>
<circle cx="213" cy="128" r="4" transform="rotate(-90 213 128)" fill="#567AF7"/>
<circle cx="213" cy="107" r="4" transform="rotate(-90 213 107)" fill="#567AF7"/>
<circle cx="213" cy="86" r="4" transform="rotate(-90 213 86)" fill="#567AF7"/>
<circle cx="4" cy="149" r="4" transform="rotate(-90 4 149)" fill="#567AF7"/>
<circle cx="4" cy="128" r="4" transform="rotate(-90 4 128)" fill="#567AF7"/>
<circle cx="4" cy="107" r="4" transform="rotate(-90 4 107)" fill="#567AF7"/>
<circle cx="4" cy="86" r="4" transform="rotate(-90 4 86)" fill="#567AF7"/>
<circle cx="23" cy="149" r="4" transform="rotate(-90 23 149)" fill="#567AF7"/>
<circle cx="23" cy="128" r="4" transform="rotate(-90 23 128)" fill="#567AF7"/>
<circle cx="23" cy="107" r="4" transform="rotate(-90 23 107)" fill="#567AF7"/>
<circle cx="23" cy="86" r="4" transform="rotate(-90 23 86)" fill="#567AF7"/>
<circle cx="42" cy="149" r="4" transform="rotate(-90 42 149)" fill="#567AF7"/>
<circle cx="42" cy="128" r="4" transform="rotate(-90 42 128)" fill="#567AF7"/>
<circle cx="42" cy="107" r="4" transform="rotate(-90 42 107)" fill="#567AF7"/>
<circle cx="42" cy="86" r="4" transform="rotate(-90 42 86)" fill="#567AF7"/>
<circle cx="61" cy="149" r="4" transform="rotate(-90 61 149)" fill="#567AF7"/>
<circle cx="61" cy="128" r="4" transform="rotate(-90 61 128)" fill="#567AF7"/>
<circle cx="61" cy="107" r="4" transform="rotate(-90 61 107)" fill="#567AF7"/>
<circle cx="61" cy="86" r="4" transform="rotate(-90 61 86)" fill="#567AF7"/>
<circle cx="80" cy="149" r="4" transform="rotate(-90 80 149)" fill="#567AF7"/>
<circle cx="80" cy="128" r="4" transform="rotate(-90 80 128)" fill="#567AF7"/>
<circle cx="80" cy="107" r="4" transform="rotate(-90 80 107)" fill="#567AF7"/>
<circle cx="80" cy="86" r="4" transform="rotate(-90 80 86)" fill="#567AF7"/>
<circle cx="99" cy="149" r="4" transform="rotate(-90 99 149)" fill="#567AF7"/>
<circle cx="99" cy="128" r="4" transform="rotate(-90 99 128)" fill="#567AF7"/>
<circle cx="99" cy="107" r="4" transform="rotate(-90 99 107)" fill="#567AF7"/>
<circle cx="99" cy="86" r="4" transform="rotate(-90 99 86)" fill="#567AF7"/>
<circle cx="348" cy="149" r="4" transform="rotate(-90 348 149)" fill="#567AF7"/>
<circle cx="348" cy="128" r="4" transform="rotate(-90 348 128)" fill="#567AF7"/>
<circle cx="348" cy="107" r="4" transform="rotate(-90 348 107)" fill="#567AF7"/>
<circle cx="348" cy="86" r="4" transform="rotate(-90 348 86)" fill="#567AF7"/>
<circle cx="367" cy="149" r="4" transform="rotate(-90 367 149)" fill="#567AF7"/>
<circle cx="367" cy="128" r="4" transform="rotate(-90 367 128)" fill="#567AF7"/>
<circle cx="367" cy="107" r="4" transform="rotate(-90 367 107)" fill="#567AF7"/>
<circle cx="367" cy="86" r="4" transform="rotate(-90 367 86)" fill="#567AF7"/>
<circle cx="386" cy="149" r="4" transform="rotate(-90 386 149)" fill="#567AF7"/>
<circle cx="386" cy="128" r="4" transform="rotate(-90 386 128)" fill="#567AF7"/>
<circle cx="386" cy="107" r="4" transform="rotate(-90 386 107)" fill="#567AF7"/>
<circle cx="386" cy="86" r="4" transform="rotate(-90 386 86)" fill="#567AF7"/>
<circle cx="405" cy="149" r="4" transform="rotate(-90 405 149)" fill="#567AF7"/>
<circle cx="405" cy="128" r="4" transform="rotate(-90 405 128)" fill="#567AF7"/>
<circle cx="405" cy="107" r="4" transform="rotate(-90 405 107)" fill="#567AF7"/>
<circle cx="405" cy="86" r="4" transform="rotate(-90 405 86)" fill="#567AF7"/>
<circle cx="424" cy="149" r="4" transform="rotate(-90 424 149)" fill="#567AF7"/>
<circle cx="424" cy="128" r="4" transform="rotate(-90 424 128)" fill="#567AF7"/>
<circle cx="424" cy="107" r="4" transform="rotate(-90 424 107)" fill="#567AF7"/>
<circle cx="424" cy="86" r="4" transform="rotate(-90 424 86)" fill="#567AF7"/>
<circle cx="443" cy="149" r="4" transform="rotate(-90 443 149)" fill="#567AF7"/>
<circle cx="443" cy="128" r="4" transform="rotate(-90 443 128)" fill="#567AF7"/>
<circle cx="443" cy="107" r="4" transform="rotate(-90 443 107)" fill="#567AF7"/>
<circle cx="234" cy="149" r="4" transform="rotate(-90 234 149)" fill="#567AF7"/>
<circle cx="234" cy="128" r="4" transform="rotate(-90 234 128)" fill="#567AF7"/>
<circle cx="234" cy="107" r="4" transform="rotate(-90 234 107)" fill="#567AF7"/>
<circle cx="234" cy="86" r="4" transform="rotate(-90 234 86)" fill="#567AF7"/>
<circle cx="253" cy="149" r="4" transform="rotate(-90 253 149)" fill="#567AF7"/>
<circle cx="253" cy="128" r="4" transform="rotate(-90 253 128)" fill="#567AF7"/>
<circle cx="253" cy="107" r="4" transform="rotate(-90 253 107)" fill="#567AF7"/>
<circle cx="253" cy="86" r="4" transform="rotate(-90 253 86)" fill="#567AF7"/>
<circle cx="272" cy="149" r="4" transform="rotate(-90 272 149)" fill="#567AF7"/>
<circle cx="272" cy="128" r="4" transform="rotate(-90 272 128)" fill="#567AF7"/>
<circle cx="272" cy="107" r="4" transform="rotate(-90 272 107)" fill="#567AF7"/>
<circle cx="272" cy="86" r="4" transform="rotate(-90 272 86)" fill="#567AF7"/>
<circle cx="291" cy="149" r="4" transform="rotate(-90 291 149)" fill="#567AF7"/>
<circle cx="291" cy="128" r="4" transform="rotate(-90 291 128)" fill="#567AF7"/>
<circle cx="291" cy="107" r="4" transform="rotate(-90 291 107)" fill="#567AF7"/>
<circle cx="291" cy="86" r="4" transform="rotate(-90 291 86)" fill="#567AF7"/>
<circle cx="310" cy="149" r="4" transform="rotate(-90 310 149)" fill="#567AF7"/>
<circle cx="310" cy="128" r="4" transform="rotate(-90 310 128)" fill="#567AF7"/>
<circle cx="310" cy="107" r="4" transform="rotate(-90 310 107)" fill="#567AF7"/>
<circle cx="310" cy="86" r="4" transform="rotate(-90 310 86)" fill="#567AF7"/>
<circle cx="329" cy="149" r="4" transform="rotate(-90 329 149)" fill="#567AF7"/>
<circle cx="329" cy="128" r="4" transform="rotate(-90 329 128)" fill="#567AF7"/>
<circle cx="329" cy="107" r="4" transform="rotate(-90 329 107)" fill="#567AF7"/>
<circle cx="329" cy="86" r="4" transform="rotate(-90 329 86)" fill="#567AF7"/>
</svg>